<?xml version="1.0" standalone="no"?>
<!DOCTYPE svg PUBLIC "-//W3C//DTD SVG 20010904//EN"
 "http://www.w3.org/TR/2001/REC-SVG-20010904/DTD/svg10.dtd">
<svg version="1.0" xmlns="http://www.w3.org/2000/svg"
 width="3773.000000pt" height="3773.000000pt" viewBox="0 0 3773.000000 3773.000000"
 preserveAspectRatio="xMidYMid meet">
<metadata>
Created by potrace 1.14, written by Peter Selinger 2001-2017
</metadata>
<g transform="translate(0.000000,3773.000000) scale(0.100000,-0.100000)"
fill="#000000" stroke="none">
<path d="M1350 18945 l0 -17505 17505 0 17505 0 0 17505 0 17505 -17505 0
-17505 0 0 -17505z m20515 15746 c417 -92 742 -298 968 -612 135 -188 258
-477 306 -719 47 -240 46 -170 46 -2470 l0 -2175 -437 -3 -438 -2 0 2047 c0
1290 -4 2092 -10 2168 -20 238 -67 423 -142 566 -89 168 -255 318 -424 382
-54 20 -76 22 -269 22 -205 0 -212 -1 -273 -26 -106 -45 -172 -90 -262 -179
-128 -126 -192 -245 -244 -450 -56 -222 -57 -256 -54 -1680 4 -1448 2 -1390
73 -1745 84 -420 196 -697 491 -1212 247 -433 447 -752 816 -1303 437 -653
838 -1337 978 -1665 129 -302 220 -666 262 -1040 19 -173 19 -3028 0 -3160
-38 -263 -98 -461 -202 -670 -217 -434 -538 -698 -985 -810 -199 -50 -297 -58
-650 -52 -332 5 -376 10 -591 73 -602 173 -1019 688 -1129 1393 -33 213 -36
420 -33 2486 l3 2050 438 3 437 2 0 -1997 c0 -1164 4 -2060 10 -2146 28 -440
136 -695 373 -883 92 -73 193 -126 282 -149 83 -21 365 -21 448 1 126 32 266
122 380 243 156 165 237 389 267 736 8 91 10 503 7 1380 -4 1343 -3 1318 -57
1610 -59 313 -174 645 -365 1049 -180 382 -518 929 -890 1441 -718 986 -1137
1836 -1270 2570 -58 327 -58 317 -62 1735 -5 1362 -1 1549 37 1775 67 407 235
752 489 1005 210 210 412 319 726 393 172 41 229 46 550 43 265 -3 312 -6 400
-25z m-9278 -134 c362 -80 599 -208 823 -444 228 -240 371 -549 437 -948 17
-106 18 -342 18 -5855 0 -5513 -1 -5749 -18 -5855 -66 -399 -209 -708 -437
-948 -80 -85 -196 -181 -286 -239 -134 -86 -321 -157 -537 -205 l-122 -27
-1097 -3 -1098 -4 0 7281 0 7281 1098 -4 1097 -3 122 -27z m4287 -5744 c584
-3174 1064 -5775 1069 -5779 4 -4 7 2594 7 5774 l0 5782 440 0 440 0 0 -7280
0 -7280 -553 0 -552 0 -1089 5818 c-598 3199 -1090 5827 -1093 5840 -3 12 -9
22 -14 22 -5 0 -9 -2427 -9 -5840 l0 -5840 -410 0 -410 0 0 7280 0 7280 557
-2 556 -3 1061 -5772z m8226 2322 l0 -3455 790 0 790 0 0 3455 0 3455 490 0
490 0 0 -7280 0 -7280 -490 0 -490 0 0 3460 0 3460 -790 0 -790 0 0 -3460 0
-3460 -480 0 -480 0 0 7280 0 7280 480 0 480 0 0 -3455z m-8195 -12864 c417
-92 742 -298 968 -612 135 -188 258 -477 306 -719 47 -240 46 -170 46 -2470
l0 -2175 -437 -3 -438 -2 0 2047 c0 1290 -4 2092 -10 2168 -20 238 -67 423
-142 566 -89 168 -255 318 -424 382 -54 20 -76 22 -269 22 -205 0 -212 -1
-273 -26 -106 -45 -172 -90 -262 -179 -128 -126 -192 -245 -244 -450 -56 -222
-57 -256 -54 -1680 4 -1448 2 -1390 73 -1745 84 -420 196 -697 491 -1212 247
-433 447 -752 816 -1303 437 -653 838 -1337 978 -1665 129 -302 220 -666 262
-1040 19 -173 19 -3028 0 -3160 -38 -263 -98 -461 -202 -670 -217 -434 -538
-698 -985 -810 -199 -50 -297 -58 -650 -52 -332 5 -376 10 -591 73 -602 173
-1019 688 -1129 1393 -33 213 -36 420 -33 2486 l3 2050 438 3 437 2 0 -1997
c0 -1164 4 -2060 10 -2146 28 -440 136 -695 373 -883 92 -73 193 -126 282
-149 83 -21 365 -21 448 1 126 32 266 122 380 243 156 165 237 389 267 736 8
91 10 503 7 1380 -4 1343 -3 1318 -57 1610 -59 313 -174 645 -365 1049 -180
382 -518 929 -890 1441 -718 986 -1137 1836 -1270 2570 -58 327 -58 317 -62
1735 -5 1362 -1 1549 37 1775 67 407 235 752 489 1005 210 210 412 319 726
393 172 41 229 46 550 43 265 -3 312 -6 400 -25z m4432 13 c550 -81 971 -388
1208 -878 90 -186 141 -353 182 -596 16 -98 18 -251 20 -2307 l3 -2203 -480 0
-480 0 0 2043 c0 1286 -4 2086 -10 2162 -19 228 -65 416 -134 553 -99 196
-310 372 -496 412 -36 8 -118 11 -235 8 -167 -3 -185 -6 -243 -30 -105 -43
-172 -89 -262 -178 -128 -126 -192 -245 -244 -450 -60 -239 -57 160 -53 -5995
l3 -5620 22 -115 c30 -158 66 -269 120 -375 38 -75 63 -108 151 -196 91 -90
119 -112 197 -151 118 -59 191 -72 382 -66 230 8 337 53 498 213 129 129 193
246 244 443 56 222 54 141 57 2010 l4 1722 -406 0 -405 0 0 410 0 410 885 0
885 0 0 -2950 0 -2950 -252 2 -251 3 -61 233 -62 232 -59 -61 c-258 -262 -595
-456 -905 -519 -78 -16 -137 -20 -292 -20 -219 0 -315 9 -473 47 -208 49 -383
123 -535 226 -117 80 -294 263 -378 391 -204 310 -305 632 -332 1061 -14 221
-14 11149 0 11370 27 429 128 751 332 1061 84 128 261 311 378 391 189 129
465 230 715 262 126 16 645 13 762 -5z m-8750 -147 c362 -80 599 -208 823
-444 228 -240 371 -549 437 -948 17 -106 18 -342 18 -5855 0 -5513 -1 -5749
-18 -5855 -66 -399 -209 -708 -437 -948 -80 -85 -196 -181 -286 -239 -134 -86
-321 -157 -537 -205 l-122 -27 -1097 -3 -1098 -4 0 7281 0 7281 1098 -4 1097
-3 122 -27z m13167 -5744 c584 -3174 1064 -5775 1069 -5779 4 -4 7 2594 7
5774 l0 5782 440 0 440 0 0 -7280 0 -7280 -553 0 -552 0 -1089 5818 c-598
3199 -1090 5827 -1093 5840 -3 12 -9 22 -14 22 -5 0 -9 -2427 -9 -5840 l0
-5840 -410 0 -410 0 0 7280 0 7280 557 -2 556 -3 1061 -5772z"/>
<path d="M11230 27310 l0 -6470 478 0 c548 1 587 5 720 70 104 52 222 146 280
225 90 121 152 296 184 520 10 72 13 1189 13 5660 0 5300 -1 5575 -18 5683
-59 371 -193 580 -459 712 -133 65 -172 69 -720 70 l-478 0 0 -6470z"/>
<path d="M11230 10890 l0 -6470 478 0 c548 1 587 5 720 70 104 52 222 146 280
225 90 121 152 296 184 520 10 72 13 1189 13 5660 0 5300 -1 5575 -18 5683
-59 371 -193 580 -459 712 -133 65 -172 69 -720 70 l-478 0 0 -6470z"/>
</g>
</svg>
